<!-- icon666.com - MILLIONS OF FREE VECTOR ICONS --><svg viewBox="-46 0 512 512.00032" xmlns="http://www.w3.org/2000/svg"><path d="m356.726562 404.726562c33.070313-28.546874 53.269532-66.75 53.269532-108.726562 0-47.792969-26.1875-90.679688-67.707032-120h17.710938c11.046875 0 19.996094-8.949219 19.996094-20s-8.949219-20-19.996094-20c-8.917969 0-284.25 0-300 0-11.050781 0-20 8.949219-20 20s8.949219 20 20 20h17.710938c-41.519532 29.320312-67.710938 72.207031-67.710938 120 0 41.976562 20.199219 80.179688 53.269531 108.726562l-34.148437 68.320313c-4.941406 9.890625-.941406 21.898437 8.9375 26.839844 9.726562 4.878906 21.835937 1.054687 26.839844-8.941407l31.589843-63.199218c32.25 17.820312 71.351563 28.25 113.511719 28.25s81.257812-10.429688 113.507812-28.25l31.589844 63.199218c5.007813 10.003907 17.125 13.816407 26.839844 8.941407 9.878906-4.941407 13.878906-16.949219 8.941406-26.839844zm0 0" fill="#4a696f"></path><g fill="#90e36a"><path d="m369.996094 10c11.050781 0 20 8.949219 20 20s-8.949219 20-20 20c-11.046875 0-19.996094-8.949219-19.996094-20s8.949219-20 19.996094-20zm0 0"></path><path d="m290 76c-17.441406 0-32.28125 11.167969-37.75 26.75-6.359375-4.261719-14.019531-6.75-22.25-6.75-22.089844 0-40 17.910156-40 40v100c0 11.046875 8.949219 20 20 20s20-8.953125 20-20c0-11.050781 8.949219-20 20-20 11.046875 0 20 8.949219 20 20v20c0 11.046875 8.949219 20 20 20 11.046875 0 20-8.953125 20-20-.003906-1.101562.023438 10.976562-.191406-80.960938.058594-.011718.128906-.03125.191406-.039062v-39h14.648438c3.398437-5.878906 5.351562-12.710938 5.351562-20 0-22.089844-17.910156-40-40-40zm0 0"></path><path d="m190 10c11.050781 0 20 8.949219 20 20s-8.949219 20-20 20-20-8.949219-20-20 8.949219-20 20-20zm0 0"></path></g><path d="m95.597656 19.800781 62.972656 116.199219h-60.570312l-37.332031-99.339844c-5.109375-12.769531 4.292969-26.660156 18.050781-26.660156 6.972656 0 13.421875 3.738281 16.878906 9.800781zm0 0" fill="#ffb64c"></path><path d="m379.996094 90c0 5.519531 4.480468 10 10 10 5.523437 0 10-4.480469 10-10s-4.476563-10-10-10c-5.519532 0-10 4.480469-10 10zm0 0"></path><path d="m300 30c0 5.519531 4.476562 10 10 10 5.519531 0 10-4.480469 10-10s-4.480469-10-10-10c-5.523438 0-10 4.480469-10 10zm0 0"></path><path d="m240 30c0 5.519531 4.480469 10 10 10s10-4.480469 10-10-4.480469-10-10-10-10 4.480469-10 10zm0 0"></path><path d="m90 385.996094c5.519531 0 10-4.476563 10-10 0-5.519532-4.480469-10-10-10s-10 4.480468-10 10c0 5.523437 4.480469 10 10 10zm0 0"></path><path d="m69.398438 353.992188c4.726562-2.859376 6.234374-9.007813 3.375-13.734376-8.476563-14-12.773438-28.890624-12.773438-44.257812 0-18.640625 6.816406-37.265625 19.714844-53.867188 3.390625-4.359374 2.601562-10.640624-1.757813-14.03125-4.363281-3.390624-10.644531-2.601562-14.035156 1.761719-15.648437 20.140625-23.921875 43.007813-23.921875 66.136719 0 19.070312 5.269531 37.449219 15.664062 54.617188 2.863282 4.726562 9.011719 6.234374 13.734376 3.375zm0 0"></path><path d="m33.574219 508.824219c14.328125 7.195312 32.597656 1.914062 40.269531-13.40625l27.042969-54.101563c32.8125 16.171875 70.304687 24.679688 109.113281 24.679688s76.296875-8.507813 109.109375-24.679688l27.046875 54.109375c7.628906 15.230469 25.867188 20.628907 40.253906 13.40625 14.789063-7.394531 20.808594-25.453125 13.410156-40.253906l-30.746093-61.519531c32.898437-30.847656 50.921875-70.007813 50.921875-111.058594 0-41.171875-18.394532-80.617188-51.214844-111.3125 12.269531-3.765625 21.214844-15.199219 21.214844-28.6875 0-16.542969-13.457032-30-29.996094-30h-21.015625c.667969-3.277344 1.015625-6.628906 1.015625-10 0-27.570312-22.433594-50-50-50-17.359375 0-33.210938 9.011719-42.242188 23.25-5.632812-2.136719-11.632812-3.25-17.757812-3.25-24.148438 0-44.347656 17.207031-48.996094 40h-16.480468l-60.132813-110.964844c-.035156-.066406-.070313-.128906-.105469-.195312-5.230468-9.152344-15.023437-14.839844-25.566406-14.839844-20.761719 0-35.015625 20.953125-27.375 40.265625l32.214844 85.734375h-23.558594c-16.542969 0-30 13.457031-30 30 0 13.484375 8.949219 24.921875 21.21875 28.683594-32.824219 30.699218-51.21875 70.144531-51.21875 111.316406 0 41.050781 18.027344 80.207031 50.925781 111.058594l-30.75 61.519531c-7.394531 14.800781-1.378906 32.859375 13.398438 40.246094zm343.878906-17.875c-4.773437 2.394531-10.867187.605469-13.410156-4.472657l-27.398438-54.816406c5.792969-3.550781 11.363281-7.347656 16.6875-11.367187l28.601563 57.222656c2.464844 4.941406.460937 10.960937-4.480469 13.433594zm-7.457031-334.949219c0 5.511719-4.484375 10-9.996094 10h-40v-20h40c5.511719 0 9.996094 4.484375 9.996094 10zm-119.996094 50c-16.542969 0-30 13.457031-30 30 0 5.511719-4.488281 10-10 10-5.515625 0-10-4.488281-10-10v-90.011719h100.007812c-.007812.855469 0 8.148438 0 110.011719 0 5.511719-4.496093 10-10.007812 10-5.515625 0-10-4.488281-10-10v-20c0-16.542969-13.460938-30-30-30zm40-120c16.539062 0 30 13.457031 30 30 0 3.421875-.59375 6.804688-1.722656 10h-56.558594c-1.128906-3.195312-1.71875-6.578125-1.71875-10 0-3.414062.566406-6.757812 1.683594-9.9375 4.214844-12 15.59375-20.0625 28.316406-20.0625zm-60 20c3.675781 0 7.273438.667969 10.652344 1.949219-.429688 2.648437-.652344 5.335937-.652344 8.050781 0 3.371094.347656 6.722656 1.015625 10h-39.296875c4.128906-11.640625 15.242188-20 28.28125-20zm-159.96875-72.855469c-.027344-.066406-.050781-.132812-.078125-.199219-2.480469-6.207031 2.066406-12.945312 8.765625-12.945312 3.351562 0 6.464844 1.789062 8.152344 4.679688l54.902344 101.320312h-36.851563zm-10.03125 112.855469h120v20h-120c-5.515625 0-10-4.488281-10-10 0-5.515625 4.484375-10 10-10zm-40 150c0-41.683594 22.179688-81.613281 60.953125-110h99.046875v50c0 16.539062 13.457031 30 30 30 16.539062 0 30-13.460938 30-30 0-5.515625 4.484375-10 10-10 5.511719 0 10 4.484375 10 10v20c0 16.539062 13.457031 30 30 30 16.539062 0 30-13.460938 30-30v-70h19.046875c38.773437 28.386719 60.949219 68.316406 60.949219 110 0 37.503906-17.6875 73.429688-49.800782 101.15625-9.464843 8.164062-20.070312 15.511719-31.523437 21.839844-31.96875 17.664062-69.550781 27-108.671875 27-56.015625 0-105.710938-19.089844-140.195312-48.835938-32.117188-27.730468-49.804688-63.65625-49.804688-101.160156zm18.066406 181.519531 28.601563-57.226562c5.320312 4.015625 10.890625 7.816406 16.6875 11.363281l-27.398438 54.8125c-2.515625 5.027344-8.574219 6.90625-13.425781 4.472656-4.929688-2.464844-6.933594-8.484375-4.464844-13.421875zm0 0"></path><path d="m160 30c0 16.542969 13.457031 30 30 30 16.539062 0 30-13.457031 30-30s-13.460938-30-30-30c-16.542969 0-30 13.457031-30 30zm40 0c0 5.515625-4.488281 10-10 10-5.515625 0-10-4.484375-10-10s4.484375-10 10-10c5.511719 0 10 4.484375 10 10zm0 0"></path><path d="m369.996094 0c-16.539063 0-29.996094 13.457031-29.996094 30s13.457031 30 29.996094 30c16.542968 0 30-13.457031 30-30s-13.457032-30-30-30zm0 40c-5.511719 0-9.996094-4.484375-9.996094-10s4.484375-10 9.996094-10c5.515625 0 10 4.484375 10 10s-4.484375 10-10 10zm0 0"></path></svg>